<svg xmlns="http://www.w3.org/2000/svg" viewBox="0 0 143.85 68"><defs><style>.cls-1{fill:#e88634;}.cls-2{fill:#f4a73e;}.cls-3{fill:none;stroke:#40d3fb;stroke-miterlimit:10;stroke-width:3px;}.cls-4{fill:#40d3fb;}.cls-5{fill:#94f4ff;}</style></defs><title>chats</title><g id="layer_2" data-name="layer_2"><g id="layer_1" data-name="layer_1"><g id="chats"><g id="Firebase"><g id="T"><path class="cls-1" d="M106.83,22.58h18.62l1,4.83h-1a9.06,9.06,0,0,0-2.36-2.77,5.7,5.7,0,0,0-2.32-1.05,20.37,20.37,0,0,0-2.85-.21V40a2.82,2.82,0,0,0,.31,1.47,1.6,1.6,0,0,0,1,.7,9.64,9.64,0,0,0,2,.23v.81H110.93v-.81a9.14,9.14,0,0,0,2-.2,1.6,1.6,0,0,0,1-.7,3.16,3.16,0,0,0,.35-1.68V23.38a11.7,11.7,0,0,0-2.76.32,6.36,6.36,0,0,0-3.27,1.9c-.35.39-.86,1-1.53,1.81h-.89Zm2.73.8h-2.38l-.57,2.49a9,9,0,0,1,1.31-1.45A8.24,8.24,0,0,1,109.56,23.38Zm6.12,16.15V25.13a3.22,3.22,0,0,0-.2-1.28.83.83,0,0,0-.74-.47V40a3.88,3.88,0,0,1-.22,1.45,2.09,2.09,0,0,1-.82.95H114c.72,0,1.17-.22,1.37-.67A6.27,6.27,0,0,0,115.68,39.53Zm9.17-13.8-.66-2.35h-2.75a6.45,6.45,0,0,1,1.86.91A11.71,11.71,0,0,1,124.85,25.73Z"/><path class="cls-2" d="M109.56,23.38h-2.38l-.57,2.49a9,9,0,0,1,1.31-1.45A8.24,8.24,0,0,1,109.56,23.38Z"/><path class="cls-2" d="M115.68,39.53V25.13a3.22,3.22,0,0,0-.2-1.28.83.83,0,0,0-.74-.47V40a3.88,3.88,0,0,1-.22,1.45,2.09,2.09,0,0,1-.82.95H114c.72,0,1.17-.22,1.37-.67A6.27,6.27,0,0,0,115.68,39.53Z"/><path class="cls-2" d="M124.85,25.73l-.66-2.35h-2.75a6.45,6.45,0,0,1,1.86.91A11.71,11.71,0,0,1,124.85,25.73Z"/></g><g id="S"><path class="cls-1" d="M129,35.81h1a15.44,15.44,0,0,0,1.94,3.88A7.88,7.88,0,0,0,134.38,42a5.56,5.56,0,0,0,2.8.76,4.62,4.62,0,0,0,3.14-1.14,4.13,4.13,0,0,0,.44-5.53,4.71,4.71,0,0,0-2.07-1.3,24.72,24.72,0,0,0-3.16-.7,18.64,18.64,0,0,1-2.79-.6,6.46,6.46,0,0,1-2.16-1.21,5,5,0,0,1-1.36-1.84,5.78,5.78,0,0,1-.46-2.31,6.46,6.46,0,0,1,.41-2.26A6.05,6.05,0,0,1,130.33,24a5.38,5.38,0,0,1,1.82-1.31,5.69,5.69,0,0,1,2.4-.49,12.52,12.52,0,0,1,2.33.27,12,12,0,0,0,2,.27,3.23,3.23,0,0,0,1.49-.35h1.11l.63,6h-1a15.19,15.19,0,0,0-3-4.11,5.36,5.36,0,0,0-3.7-1.41,4,4,0,0,0-2,.49A3.89,3.89,0,0,0,131,24.72a3.43,3.43,0,0,0-.55,1.9,2.65,2.65,0,0,0,1,2.24A7,7,0,0,0,134.38,30c1.3.27,2.47.49,3.5.68a9.13,9.13,0,0,1,2.45.72,6.12,6.12,0,0,1,2.59,2.27,5.93,5.93,0,0,1,.93,3.28,6.71,6.71,0,0,1-.85,3.28,6.5,6.5,0,0,1-2.39,2.44,6.59,6.59,0,0,1-3.43.91,5.94,5.94,0,0,1-1.61-.16q-.54-.16-1.86-.63a6.7,6.7,0,0,0-2-.47,2.22,2.22,0,0,0-1.86.9H129Zm.49-9.37a8.53,8.53,0,0,0-.25,1.81,5.1,5.1,0,0,0,.26,1.56,5.69,5.69,0,0,0,.78,1.48,4.77,4.77,0,0,0,1.16,1.13,5.59,5.59,0,0,0,1.9.83c.69.16,1.71.35,3,.57a14.6,14.6,0,0,1,2.76.64A4.53,4.53,0,0,1,141.32,36a4,4,0,0,1,.78,2.47,4.92,4.92,0,0,1-.6,2.23,4.08,4.08,0,0,0,1.21-2.92,3.94,3.94,0,0,0-.89-2.72,5.42,5.42,0,0,0-2.2-1.46,22.2,22.2,0,0,0-3.58-.88l-2.33-.42a5.77,5.77,0,0,1-3.16-1.87,4.81,4.81,0,0,1-1.07-3.08c0-.21,0-.39,0-.54S129.47,26.56,129.48,26.44Zm0,12.09v3.91a2.28,2.28,0,0,1,.78-.72,2.74,2.74,0,0,1,1.11-.13c-.33-.38-.56-.66-.7-.84a7.65,7.65,0,0,1-.53-.81A9.56,9.56,0,0,1,129.48,38.53Zm11-12.2-.48-2.8a3,3,0,0,1-1,.16,4.4,4.4,0,0,1-1.14-.16,5.76,5.76,0,0,1,1,.85,12,12,0,0,1,.92,1.13C140.2,26,140.42,26.22,140.52,26.33Z"/><path class="cls-2" d="M129.48,38.53v3.91a2.28,2.28,0,0,1,.78-.72,2.74,2.74,0,0,1,1.11-.13c-.33-.38-.56-.66-.7-.84a7.65,7.65,0,0,1-.53-.81A9.56,9.56,0,0,1,129.48,38.53Z"/><path class="cls-2" d="M129.48,26.44a8.53,8.53,0,0,0-.25,1.81,5.1,5.1,0,0,0,.26,1.56,5.69,5.69,0,0,0,.78,1.48,4.77,4.77,0,0,0,1.16,1.13,5.59,5.59,0,0,0,1.9.83c.69.16,1.71.35,3,.57a14.6,14.6,0,0,1,2.76.64A4.53,4.53,0,0,1,141.32,36a4,4,0,0,1,.78,2.47,4.92,4.92,0,0,1-.6,2.23,4.08,4.08,0,0,0,1.21-2.92,3.94,3.94,0,0,0-.89-2.72,5.42,5.42,0,0,0-2.2-1.46,22.2,22.2,0,0,0-3.58-.88l-2.33-.42a5.77,5.77,0,0,1-3.16-1.87,4.81,4.81,0,0,1-1.07-3.08c0-.21,0-.39,0-.54S129.47,26.56,129.48,26.44Z"/><path class="cls-2" d="M140.52,26.33l-.48-2.8a3,3,0,0,1-1,.16,4.4,4.4,0,0,1-1.14-.16,5.76,5.76,0,0,1,1,.85,12,12,0,0,1,.92,1.13C140.2,26,140.42,26.22,140.52,26.33Z"/></g><g id="H"><path class="cls-1" d="M35.52,43.25v-.81a8.27,8.27,0,0,0,2.07-.29,1.29,1.29,0,0,0,.8-.78,6.2,6.2,0,0,0,.19-1.84V33.14H28.17V39.2a13,13,0,0,0,.08,1.64,1.62,1.62,0,0,0,.37.87,1.57,1.57,0,0,0,.85.48,11.21,11.21,0,0,0,1.73.25v.81H21.42v-.81A9.65,9.65,0,0,0,23,42.3a1.72,1.72,0,0,0,.9-.42,1.58,1.58,0,0,0,.45-.86,7,7,0,0,0,.13-1.55V25.73a2.07,2.07,0,0,0-.66-1.84,5.1,5.1,0,0,0-2.43-.51v-.8H31.2v.8a5.55,5.55,0,0,0-2.08.31,1.38,1.38,0,0,0-.79.94,9.26,9.26,0,0,0-.16,2.06v5.36H38.58V25.9a3.62,3.62,0,0,0-.25-1.57,1.28,1.28,0,0,0-.84-.67,10.66,10.66,0,0,0-2-.28v-.8h9.79v.8a7.28,7.28,0,0,0-2.08.28,1.27,1.27,0,0,0-.79.88,8.36,8.36,0,0,0-.19,2.15V39.47a6.84,6.84,0,0,0,.18,1.81,1.38,1.38,0,0,0,.82.9,4.94,4.94,0,0,0,2.06.26v.81ZM25,25.84v14a4.05,4.05,0,0,1-.29,1.8,2.32,2.32,0,0,1-.74.81h.43a1.22,1.22,0,0,0,1.19-.67,4.5,4.5,0,0,0,.35-2V26.62a15.72,15.72,0,0,0-.1-2,1.4,1.4,0,0,0-.52-.95A2.08,2.08,0,0,0,24,23.38a1.72,1.72,0,0,1,.8.8A4.4,4.4,0,0,1,25,25.84Zm14.08-.2V40.16a3.34,3.34,0,0,1-.25,1.51,2.23,2.23,0,0,1-.81.77h.49A1.37,1.37,0,0,0,39.64,42,2.4,2.4,0,0,0,40,40.55V26a5.74,5.74,0,0,0-.26-2c-.18-.43-.61-.65-1.29-.65H38a1.61,1.61,0,0,1,.84.78A3.93,3.93,0,0,1,39.07,25.64Z"/><path class="cls-2" d="M39.07,25.64V40.16a3.34,3.34,0,0,1-.25,1.51,2.23,2.23,0,0,1-.81.77h.49A1.37,1.37,0,0,0,39.64,42,2.4,2.4,0,0,0,40,40.55V26a5.74,5.74,0,0,0-.26-2c-.18-.43-.61-.65-1.29-.65H38a1.61,1.61,0,0,1,.84.78A3.93,3.93,0,0,1,39.07,25.64Z"/><path class="cls-2" d="M25,25.84v14a4.05,4.05,0,0,1-.29,1.8,2.32,2.32,0,0,1-.74.81h.43a1.22,1.22,0,0,0,1.19-.67,4.5,4.5,0,0,0,.35-2V26.62a15.72,15.72,0,0,0-.1-2,1.4,1.4,0,0,0-.52-.95A2.08,2.08,0,0,0,24,23.38a1.72,1.72,0,0,1,.8.8A4.4,4.4,0,0,1,25,25.84Z"/></g><g id="C"><path class="cls-1" d="M17.94,22.3h1.21v6.49h-.91a16.24,16.24,0,0,0-1.49-2.53,9.55,9.55,0,0,0-1.69-1.81,6.43,6.43,0,0,0-1.88-1.09A6,6,0,0,0,11.07,23a5.7,5.7,0,0,0-2.76.68,6.36,6.36,0,0,0-2.13,1.95,10.1,10.1,0,0,0-1.37,3.09,14.68,14.68,0,0,0-.49,3.88,12.71,12.71,0,0,0,1,5.12A8.14,8.14,0,0,0,8,41.22a6.61,6.61,0,0,0,3.95,1.25A7.82,7.82,0,0,0,14.57,42,8.25,8.25,0,0,0,17,40.66a11.83,11.83,0,0,0,2.16-2.28l.86.49a11,11,0,0,1-4,3.59,11.29,11.29,0,0,1-5.33,1.21,11.12,11.12,0,0,1-4.32-.82A10.07,10.07,0,0,1,.77,37.14,11.17,11.17,0,0,1,0,33a11.43,11.43,0,0,1,.83-4.36A10.5,10.5,0,0,1,3.14,25.2,10.17,10.17,0,0,1,6.56,23a10.72,10.72,0,0,1,4.12-.79,8.16,8.16,0,0,1,1.53.13c.47.08,1,.21,1.69.38s1.1.3,1.33.35a3.73,3.73,0,0,0,.8.08A2.47,2.47,0,0,0,17.94,22.3Zm-10.23.64A13.24,13.24,0,0,0,4,25,9.63,9.63,0,0,0,2.5,26.59a10.17,10.17,0,0,0-1.77,4,10.41,10.41,0,0,0-.25,2.25,10.9,10.9,0,0,0,1.09,4.87A9.43,9.43,0,0,0,4.8,41.44a11.27,11.27,0,0,0,5.13,1.81,13.29,13.29,0,0,1-3.55-1.51,10.87,10.87,0,0,1-2.73-2.39,10.07,10.07,0,0,1-2.24-6.43,10.81,10.81,0,0,1,.48-3.08A9.87,9.87,0,0,1,3.24,27a11.66,11.66,0,0,1,2-2.29A23.56,23.56,0,0,1,7.71,22.94Zm9.66,3-.08-2.49a3.48,3.48,0,0,1-1.46.31,3.66,3.66,0,0,1-.68-.06,10,10,0,0,1,1.24,1.11C16.72,25.21,17.05,25.59,17.37,26Z"/><path class="cls-2" d="M7.71,22.94A13.24,13.24,0,0,0,4,25,9.63,9.63,0,0,0,2.5,26.59a10.17,10.17,0,0,0-1.77,4,10.41,10.41,0,0,0-.25,2.25,10.9,10.9,0,0,0,1.09,4.87A9.43,9.43,0,0,0,4.8,41.44a11.27,11.27,0,0,0,5.13,1.81,13.29,13.29,0,0,1-3.55-1.51,10.87,10.87,0,0,1-2.73-2.39,10.07,10.07,0,0,1-2.24-6.43,10.81,10.81,0,0,1,.48-3.08A9.87,9.87,0,0,1,3.24,27a11.66,11.66,0,0,1,2-2.29A23.56,23.56,0,0,1,7.71,22.94Z"/><path class="cls-2" d="M17.37,26l-.08-2.49a3.48,3.48,0,0,1-1.46.31,3.66,3.66,0,0,1-.68-.06,10,10,0,0,1,1.24,1.11C16.72,25.21,17.05,25.59,17.37,26Z"/></g></g><g id="React"><path class="cls-3" d="M76.1,1.5c6.83,0,12.37,14.55,12.37,32.5S82.93,66.5,76.1,66.5,63.72,52,63.72,34,69.26,1.5,76.1,1.5ZM69.91,44.72c15.55,9,30.92,11.45,34.33,5.53s-6.41-18-21.95-27S51.37,11.83,48,17.75,54.37,35.74,69.91,44.72Zm12.38,0c15.54-9,25.37-21,21.95-27s-18.78-3.44-34.33,5.53-25.37,21-22,27S66.74,53.69,82.29,44.72Z"/><g id="a"><path class="cls-4" d="M72.9,27.92a2.51,2.51,0,0,0,.25.46,1.43,1.43,0,0,1,.24.74,1.54,1.54,0,0,1-.67,1.22,2.61,2.61,0,0,1-1.67.53,2.52,2.52,0,0,1-1.53-.42,1.22,1.22,0,0,1-.56-1,2.17,2.17,0,0,1,1-1.62,7.68,7.68,0,0,1,2.63-1.29,12.91,12.91,0,0,1,3.69-.5,8.69,8.69,0,0,1,2.74.43,4.55,4.55,0,0,1,2,1.3,3.07,3.07,0,0,1,.76,2.11V38c0,.65.22,1,.66,1a1.58,1.58,0,0,0,1-.52l.7.68a9,9,0,0,1-1.71,1.17,4.12,4.12,0,0,1-1.86.4,3.45,3.45,0,0,1-1.94-.47,2.45,2.45,0,0,1-1-1.45,8.79,8.79,0,0,1-5.16,1.89,4.71,4.71,0,0,1-2.88-.8,2.41,2.41,0,0,1-1.06-2A2.74,2.74,0,0,1,69.14,36a5.91,5.91,0,0,1,1.72-1.37c.71-.39,1.75-.89,3.14-1.5s2.52-1.13,3.42-1.56v-2.4a2.14,2.14,0,0,0-.59-1.63,2.46,2.46,0,0,0-1.76-.55,3.49,3.49,0,0,0-1.59.3C73.1,27.45,72.9,27.67,72.9,27.92Zm1.19,11.95a5.52,5.52,0,0,1-2.74-.59,1.84,1.84,0,0,1-1-1.69,2.59,2.59,0,0,1,.5-1.53,9.22,9.22,0,0,1,1.5-1.61A9.92,9.92,0,0,0,70,36a2.43,2.43,0,0,0-.84,1.84,1.87,1.87,0,0,0,1,1.61,4,4,0,0,0,2.2.64A6.2,6.2,0,0,0,74.09,39.87Zm-1.77-10a1.54,1.54,0,0,1-1-.22.8.8,0,0,1-.36-.64,1.36,1.36,0,0,1,.32-.88A14.31,14.31,0,0,1,72.36,27a8.62,8.62,0,0,0-2.06,1.15,1.62,1.62,0,0,0-.72,1.28A.75.75,0,0,0,70,30a1.49,1.49,0,0,0,.91.28A2.19,2.19,0,0,0,72.32,29.87Zm5.1,7.81V32.59a13,13,0,0,0-3.37,2.07,3,3,0,0,0-1,2.21,1.65,1.65,0,0,0,.57,1.35A2,2,0,0,0,75,38.7,3.9,3.9,0,0,0,77.42,37.68ZM78,30.15v6.27a6.31,6.31,0,0,0,.47,2.76,1.88,1.88,0,0,0,1.85.91,3.36,3.36,0,0,0,1-.12,2.29,2.29,0,0,1-1.6-.76,3.19,3.19,0,0,1-.47-1.94V30a3.5,3.5,0,0,0-.56-2.27A2.81,2.81,0,0,0,76.81,27a1.69,1.69,0,0,1,1,.92A6.67,6.67,0,0,1,78,30.15Z"/><path class="cls-5" d="M72.32,29.87a1.54,1.54,0,0,1-1-.22.8.8,0,0,1-.36-.64,1.36,1.36,0,0,1,.32-.88A14.31,14.31,0,0,1,72.36,27a8.62,8.62,0,0,0-2.06,1.15,1.62,1.62,0,0,0-.72,1.28A.75.75,0,0,0,70,30a1.49,1.49,0,0,0,.91.28A2.19,2.19,0,0,0,72.32,29.87Z"/><path class="cls-5" d="M78,30.15v6.27a6.31,6.31,0,0,0,.47,2.76,1.88,1.88,0,0,0,1.85.91,3.36,3.36,0,0,0,1-.12,2.29,2.29,0,0,1-1.6-.76,3.19,3.19,0,0,1-.47-1.94V30a3.5,3.5,0,0,0-.56-2.27A2.81,2.81,0,0,0,76.81,27a1.69,1.69,0,0,1,1,.92A6.67,6.67,0,0,1,78,30.15Z"/><path class="cls-5" d="M74.09,39.87a5.52,5.52,0,0,1-2.74-.59,1.84,1.84,0,0,1-1-1.69,2.59,2.59,0,0,1,.5-1.53,9.22,9.22,0,0,1,1.5-1.61A9.92,9.92,0,0,0,70,36a2.43,2.43,0,0,0-.84,1.84,1.87,1.87,0,0,0,1,1.61,4,4,0,0,0,2.2.64A6.2,6.2,0,0,0,74.09,39.87Z"/></g></g></g></g></g></svg>